<mxfile host="app.diagrams.net" modified="2024-04-12T05:19:12.440Z" agent="Mozilla/5.0 (Windows NT 10.0; Win64; x64) AppleWebKit/537.36 (KHTML, like Gecko) Chrome/123.0.0.0 Safari/537.36" etag="d1mXnSUoucgUm9VQWRoM" version="24.2.3" type="device">
  <diagram name="Page-1" id="efa7a0a1-bf9b-a30e-e6df-94a7791c09e9">
    <mxGraphModel dx="969" dy="530" grid="1" gridSize="10" guides="1" tooltips="1" connect="1" arrows="1" fold="1" page="1" pageScale="1" pageWidth="826" pageHeight="1169" background="none" math="0" shadow="0">
      <root>
        <mxCell id="0" />
        <mxCell id="1" parent="0" />
        <mxCell id="25" value="&lt;p style=&quot;margin: 0px; margin-top: 4px; text-align: center; text-decoration: underline;&quot;&gt;&lt;b&gt;BACKEND&lt;/b&gt;&lt;/p&gt;&lt;hr&gt;&lt;p style=&quot;margin: 0px; margin-left: 8px;&quot;&gt;APIs&lt;/p&gt;&lt;p style=&quot;margin: 0px; margin-left: 8px;&quot;&gt;Database&lt;/p&gt;&lt;p style=&quot;margin: 0px; margin-left: 8px;&quot;&gt;Medication Alternative Suggestion AI model&lt;/p&gt;&lt;p style=&quot;margin: 0px; margin-left: 8px;&quot;&gt;SMS sending&lt;/p&gt;&lt;p style=&quot;margin: 0px; margin-left: 8px;&quot;&gt;&lt;br&gt;&lt;/p&gt;" style="verticalAlign=top;align=left;overflow=fill;fontSize=12;fontFamily=Helvetica;html=1;strokeColor=#003366;shadow=1;fillColor=#D4E1F5;fontColor=#003366" parent="1" vertex="1">
          <mxGeometry x="305" y="630" width="250" height="90" as="geometry" />
        </mxCell>
        <mxCell id="2jEdtlAb8kNoGngFzu_8-121" style="edgeStyle=orthogonalEdgeStyle;rounded=0;orthogonalLoop=1;jettySize=auto;html=1;exitX=0.5;exitY=1;exitDx=0;exitDy=0;entryX=0.5;entryY=0;entryDx=0;entryDy=0;" edge="1" parent="1" source="2jEdtlAb8kNoGngFzu_8-117" target="2jEdtlAb8kNoGngFzu_8-120">
          <mxGeometry relative="1" as="geometry">
            <mxPoint x="424.57142857142867" y="490" as="targetPoint" />
          </mxGeometry>
        </mxCell>
        <mxCell id="2jEdtlAb8kNoGngFzu_8-128" style="edgeStyle=orthogonalEdgeStyle;rounded=0;orthogonalLoop=1;jettySize=auto;html=1;exitX=1;exitY=0.5;exitDx=0;exitDy=0;entryX=0.5;entryY=1;entryDx=0;entryDy=0;" edge="1" parent="1" source="2jEdtlAb8kNoGngFzu_8-117" target="2jEdtlAb8kNoGngFzu_8-127">
          <mxGeometry relative="1" as="geometry" />
        </mxCell>
        <mxCell id="2jEdtlAb8kNoGngFzu_8-152" style="edgeStyle=orthogonalEdgeStyle;rounded=0;orthogonalLoop=1;jettySize=auto;html=1;exitX=0.5;exitY=0;exitDx=0;exitDy=0;entryX=1;entryY=1;entryDx=0;entryDy=0;" edge="1" parent="1" source="2jEdtlAb8kNoGngFzu_8-143" target="2jEdtlAb8kNoGngFzu_8-117">
          <mxGeometry relative="1" as="geometry">
            <Array as="points">
              <mxPoint x="698" y="800" />
            </Array>
          </mxGeometry>
        </mxCell>
        <mxCell id="2jEdtlAb8kNoGngFzu_8-117" value="&lt;p style=&quot;margin: 4px 0px 0px; text-align: center;&quot;&gt;&lt;b&gt;ESP32 MICROCONTROLLER&lt;/b&gt;&lt;/p&gt;" style="verticalAlign=top;align=left;overflow=fill;fontSize=12;fontFamily=Helvetica;html=1;strokeColor=#003366;shadow=1;fillColor=#D4E1F5;fontColor=#003366" vertex="1" parent="1">
          <mxGeometry x="312.5" y="760" width="235" height="40" as="geometry" />
        </mxCell>
        <mxCell id="2jEdtlAb8kNoGngFzu_8-126" style="edgeStyle=orthogonalEdgeStyle;rounded=0;orthogonalLoop=1;jettySize=auto;html=1;exitX=0.5;exitY=1;exitDx=0;exitDy=0;entryX=0.5;entryY=0;entryDx=0;entryDy=0;" edge="1" parent="1" source="2jEdtlAb8kNoGngFzu_8-118" target="2jEdtlAb8kNoGngFzu_8-125">
          <mxGeometry relative="1" as="geometry" />
        </mxCell>
        <mxCell id="2jEdtlAb8kNoGngFzu_8-118" value="&lt;p style=&quot;margin: 4px 0px 0px; text-align: center;&quot;&gt;&lt;b style=&quot;&quot;&gt;CAROUSEL TO DISPENSE&lt;/b&gt;&lt;/p&gt;" style="verticalAlign=top;align=left;overflow=fill;fontSize=12;fontFamily=Helvetica;html=1;strokeColor=#003366;shadow=1;fillColor=#D4E1F5;fontColor=#003366" vertex="1" parent="1">
          <mxGeometry x="307.5" y="970" width="245" height="40" as="geometry" />
        </mxCell>
        <mxCell id="2jEdtlAb8kNoGngFzu_8-122" style="edgeStyle=orthogonalEdgeStyle;rounded=0;orthogonalLoop=1;jettySize=auto;html=1;exitX=0.5;exitY=1;exitDx=0;exitDy=0;entryX=0.5;entryY=0;entryDx=0;entryDy=0;" edge="1" parent="1" source="2jEdtlAb8kNoGngFzu_8-120" target="2jEdtlAb8kNoGngFzu_8-123">
          <mxGeometry relative="1" as="geometry" />
        </mxCell>
        <mxCell id="2jEdtlAb8kNoGngFzu_8-120" value="&lt;p style=&quot;margin: 4px 0px 0px; text-align: center;&quot;&gt;&lt;b&gt;MOTOR DRIVER&lt;/b&gt;&lt;/p&gt;" style="verticalAlign=top;align=left;overflow=fill;fontSize=12;fontFamily=Helvetica;html=1;strokeColor=#003366;shadow=1;fillColor=#D4E1F5;fontColor=#003366" vertex="1" parent="1">
          <mxGeometry x="312.5" y="820" width="235" height="40" as="geometry" />
        </mxCell>
        <mxCell id="2jEdtlAb8kNoGngFzu_8-147" style="edgeStyle=orthogonalEdgeStyle;rounded=0;orthogonalLoop=1;jettySize=auto;html=1;exitX=0.5;exitY=1;exitDx=0;exitDy=0;entryX=0.5;entryY=0;entryDx=0;entryDy=0;" edge="1" parent="1" source="2jEdtlAb8kNoGngFzu_8-123" target="2jEdtlAb8kNoGngFzu_8-118">
          <mxGeometry relative="1" as="geometry">
            <mxPoint x="430" y="960" as="targetPoint" />
          </mxGeometry>
        </mxCell>
        <mxCell id="2jEdtlAb8kNoGngFzu_8-123" value="&lt;p style=&quot;margin: 4px 0px 0px; text-align: center;&quot;&gt;&lt;b&gt;STEPPER MOTORS&lt;/b&gt;&lt;/p&gt;" style="verticalAlign=top;align=left;overflow=fill;fontSize=12;fontFamily=Helvetica;html=1;strokeColor=#003366;shadow=1;fillColor=#D4E1F5;fontColor=#003366" vertex="1" parent="1">
          <mxGeometry x="312.5" y="890" width="235" height="40" as="geometry" />
        </mxCell>
        <mxCell id="2jEdtlAb8kNoGngFzu_8-125" value="&lt;p style=&quot;margin: 4px 0px 0px; text-align: center;&quot;&gt;&lt;b style=&quot;&quot;&gt;COLLECTION POINT&lt;/b&gt;&lt;/p&gt;" style="verticalAlign=top;align=left;overflow=fill;fontSize=12;fontFamily=Helvetica;html=1;strokeColor=#003366;shadow=1;fillColor=#D4E1F5;fontColor=#003366" vertex="1" parent="1">
          <mxGeometry x="307.5" y="1050" width="245" height="40" as="geometry" />
        </mxCell>
        <mxCell id="2jEdtlAb8kNoGngFzu_8-127" value="&lt;p style=&quot;margin: 4px 0px 0px; text-align: center;&quot;&gt;&lt;b&gt;VENDING MACHINE&lt;/b&gt;&lt;/p&gt;&lt;p style=&quot;margin: 4px 0px 0px; text-align: center;&quot;&gt;&lt;b&gt;USER INTERFACE&amp;nbsp;&lt;/b&gt;&lt;/p&gt;&lt;p style=&quot;margin: 4px 0px 0px; text-align: center;&quot;&gt;&lt;b&gt;(LCD OR BUTTONS)&lt;/b&gt;&lt;/p&gt;" style="verticalAlign=top;align=left;overflow=fill;fontSize=12;fontFamily=Helvetica;html=1;strokeColor=#003366;shadow=1;fillColor=#D4E1F5;fontColor=#003366" vertex="1" parent="1">
          <mxGeometry x="580" y="700" width="235" height="60" as="geometry" />
        </mxCell>
        <mxCell id="2jEdtlAb8kNoGngFzu_8-132" value="&lt;p style=&quot;margin: 0px; margin-top: 4px; text-align: center; text-decoration: underline;&quot;&gt;&lt;b&gt;FRONT END&lt;/b&gt;&lt;/p&gt;&lt;hr&gt;&lt;p style=&quot;margin: 0px; margin-left: 8px;&quot;&gt;Doctor able to create prescription and update patient records&lt;/p&gt;&lt;p style=&quot;margin: 0px; margin-left: 8px;&quot;&gt;Patient able to view prescriptions and alternatives as well as view digital healthbook&lt;/p&gt;" style="verticalAlign=top;align=left;overflow=fill;fontSize=12;fontFamily=Helvetica;html=1;strokeColor=#003366;shadow=1;fillColor=#D4E1F5;fontColor=#003366" vertex="1" parent="1">
          <mxGeometry x="198.75" y="500" width="462.5" height="90" as="geometry" />
        </mxCell>
        <mxCell id="2jEdtlAb8kNoGngFzu_8-133" value="" style="endArrow=classic;startArrow=classic;html=1;rounded=0;entryX=0.5;entryY=1;entryDx=0;entryDy=0;exitX=0.5;exitY=0;exitDx=0;exitDy=0;" edge="1" parent="1" source="25" target="2jEdtlAb8kNoGngFzu_8-132">
          <mxGeometry width="50" height="50" relative="1" as="geometry">
            <mxPoint x="430" y="590" as="sourcePoint" />
            <mxPoint x="430" y="530" as="targetPoint" />
          </mxGeometry>
        </mxCell>
        <mxCell id="2jEdtlAb8kNoGngFzu_8-136" style="edgeStyle=orthogonalEdgeStyle;rounded=0;orthogonalLoop=1;jettySize=auto;html=1;exitX=0;exitY=0.5;exitDx=0;exitDy=0;entryX=1;entryY=0.5;entryDx=0;entryDy=0;" edge="1" parent="1" source="2jEdtlAb8kNoGngFzu_8-123" target="2jEdtlAb8kNoGngFzu_8-135">
          <mxGeometry relative="1" as="geometry" />
        </mxCell>
        <mxCell id="2jEdtlAb8kNoGngFzu_8-141" style="edgeStyle=orthogonalEdgeStyle;rounded=0;orthogonalLoop=1;jettySize=auto;html=1;exitX=0.5;exitY=1;exitDx=0;exitDy=0;entryX=0.5;entryY=0;entryDx=0;entryDy=0;" edge="1" parent="1" source="2jEdtlAb8kNoGngFzu_8-135" target="2jEdtlAb8kNoGngFzu_8-137">
          <mxGeometry relative="1" as="geometry" />
        </mxCell>
        <mxCell id="2jEdtlAb8kNoGngFzu_8-135" value="&lt;p style=&quot;margin: 4px 0px 0px; text-align: center;&quot;&gt;&lt;b&gt;ROTATING PILL SELECTING DISK&lt;/b&gt;&lt;/p&gt;&lt;p style=&quot;margin: 4px 0px 0px; text-align: center;&quot;&gt;&lt;b&gt;/CONVEYOR BELT&lt;/b&gt;&lt;/p&gt;" style="verticalAlign=top;align=left;overflow=fill;fontSize=12;fontFamily=Helvetica;html=1;strokeColor=#003366;shadow=1;fillColor=#D4E1F5;fontColor=#003366" vertex="1" parent="1">
          <mxGeometry x="60" y="890" width="235" height="40" as="geometry" />
        </mxCell>
        <mxCell id="2jEdtlAb8kNoGngFzu_8-142" style="edgeStyle=orthogonalEdgeStyle;rounded=0;orthogonalLoop=1;jettySize=auto;html=1;exitX=0.5;exitY=1;exitDx=0;exitDy=0;entryX=0.5;entryY=0;entryDx=0;entryDy=0;" edge="1" parent="1" source="2jEdtlAb8kNoGngFzu_8-137" target="2jEdtlAb8kNoGngFzu_8-138">
          <mxGeometry relative="1" as="geometry" />
        </mxCell>
        <mxCell id="2jEdtlAb8kNoGngFzu_8-153" style="edgeStyle=orthogonalEdgeStyle;rounded=0;orthogonalLoop=1;jettySize=auto;html=1;exitX=0;exitY=0.5;exitDx=0;exitDy=0;entryX=0;entryY=0.5;entryDx=0;entryDy=0;" edge="1" parent="1" source="2jEdtlAb8kNoGngFzu_8-137" target="2jEdtlAb8kNoGngFzu_8-117">
          <mxGeometry relative="1" as="geometry" />
        </mxCell>
        <mxCell id="2jEdtlAb8kNoGngFzu_8-137" value="&lt;p style=&quot;margin: 4px 0px 0px; text-align: center;&quot;&gt;&lt;b&gt;MOTION DETECTION SENSOR (IR)&lt;/b&gt;&lt;/p&gt;" style="verticalAlign=top;align=left;overflow=fill;fontSize=12;fontFamily=Helvetica;html=1;strokeColor=#003366;shadow=1;fillColor=#D4E1F5;fontColor=#003366" vertex="1" parent="1">
          <mxGeometry x="60" y="960" width="235" height="40" as="geometry" />
        </mxCell>
        <mxCell id="2jEdtlAb8kNoGngFzu_8-138" value="&lt;p style=&quot;margin: 4px 0px 0px; text-align: center;&quot;&gt;&lt;b&gt;DISPENSING FUNNEL&lt;/b&gt;&lt;/p&gt;" style="verticalAlign=top;align=left;overflow=fill;fontSize=12;fontFamily=Helvetica;html=1;strokeColor=#003366;shadow=1;fillColor=#D4E1F5;fontColor=#003366" vertex="1" parent="1">
          <mxGeometry x="60" y="1020" width="235" height="40" as="geometry" />
        </mxCell>
        <mxCell id="2jEdtlAb8kNoGngFzu_8-140" style="edgeStyle=orthogonalEdgeStyle;rounded=0;orthogonalLoop=1;jettySize=auto;html=1;exitX=0.5;exitY=1;exitDx=0;exitDy=0;entryX=0.5;entryY=0;entryDx=0;entryDy=0;" edge="1" parent="1" source="2jEdtlAb8kNoGngFzu_8-139" target="2jEdtlAb8kNoGngFzu_8-135">
          <mxGeometry relative="1" as="geometry" />
        </mxCell>
        <mxCell id="2jEdtlAb8kNoGngFzu_8-139" value="&lt;p style=&quot;margin: 4px 0px 0px; text-align: center;&quot;&gt;&lt;b&gt;PILL STORAGE CONTAINER&lt;/b&gt;&lt;/p&gt;" style="verticalAlign=top;align=left;overflow=fill;fontSize=12;fontFamily=Helvetica;html=1;strokeColor=#003366;shadow=1;fillColor=#D4E1F5;fontColor=#003366" vertex="1" parent="1">
          <mxGeometry x="60" y="830" width="235" height="40" as="geometry" />
        </mxCell>
        <mxCell id="2jEdtlAb8kNoGngFzu_8-143" value="&lt;p style=&quot;margin: 4px 0px 0px; text-align: center;&quot;&gt;&lt;b&gt;DC POWER SUPPLY&lt;/b&gt;&lt;/p&gt;" style="verticalAlign=top;align=left;overflow=fill;fontSize=12;fontFamily=Helvetica;html=1;strokeColor=#003366;shadow=1;fillColor=#D4E1F5;fontColor=#003366" vertex="1" parent="1">
          <mxGeometry x="580" y="820" width="235" height="40" as="geometry" />
        </mxCell>
        <mxCell id="2jEdtlAb8kNoGngFzu_8-151" value="" style="endArrow=classic;startArrow=classic;html=1;rounded=0;entryX=0.5;entryY=1;entryDx=0;entryDy=0;exitX=0.5;exitY=0;exitDx=0;exitDy=0;" edge="1" parent="1" source="2jEdtlAb8kNoGngFzu_8-117" target="25">
          <mxGeometry width="50" height="50" relative="1" as="geometry">
            <mxPoint x="816.5" y="950" as="sourcePoint" />
            <mxPoint x="430" y="730" as="targetPoint" />
            <Array as="points" />
          </mxGeometry>
        </mxCell>
        <mxCell id="2jEdtlAb8kNoGngFzu_8-154" value="sensor feedback" style="text;html=1;align=center;verticalAlign=middle;resizable=0;points=[];autosize=1;strokeColor=none;fillColor=none;" vertex="1" parent="1">
          <mxGeometry x="100" y="750" width="110" height="30" as="geometry" />
        </mxCell>
      </root>
    </mxGraphModel>
  </diagram>
</mxfile>
